<mxfile host="app.diagrams.net" modified="2024-03-31T19:25:44.748Z" agent="Mozilla/5.0 (X11; Linux x86_64) AppleWebKit/537.36 (KHTML, like Gecko) Chrome/122.0.0.0 Safari/537.36" etag="QixR1gOsFbDC85g23Ug7" version="24.2.1" type="device">
  <diagram name="Page-1" id="L8j-c3YBWOeJJrME1N-z">
    <mxGraphModel dx="1364" dy="766" grid="1" gridSize="10" guides="1" tooltips="1" connect="1" arrows="1" fold="1" page="1" pageScale="1" pageWidth="827" pageHeight="1169" math="0" shadow="0">
      <root>
        <mxCell id="0" />
        <mxCell id="1" parent="0" />
        <mxCell id="5uGWzuY_lre10eIsBFzZ-10" value="Wifi" style="edgeStyle=orthogonalEdgeStyle;rounded=0;orthogonalLoop=1;jettySize=auto;html=1;exitX=0.75;exitY=1;exitDx=0;exitDy=0;entryX=0.5;entryY=0;entryDx=0;entryDy=0;endArrow=classic;endFill=1;startArrow=classic;startFill=1;" edge="1" parent="1" source="5uGWzuY_lre10eIsBFzZ-1" target="5uGWzuY_lre10eIsBFzZ-8">
          <mxGeometry relative="1" as="geometry" />
        </mxCell>
        <mxCell id="5uGWzuY_lre10eIsBFzZ-12" value="I2C" style="edgeStyle=orthogonalEdgeStyle;rounded=0;orthogonalLoop=1;jettySize=auto;html=1;exitX=1;exitY=0.5;exitDx=0;exitDy=0;entryX=0;entryY=0.5;entryDx=0;entryDy=0;" edge="1" parent="1" source="5uGWzuY_lre10eIsBFzZ-1" target="5uGWzuY_lre10eIsBFzZ-11">
          <mxGeometry relative="1" as="geometry" />
        </mxCell>
        <mxCell id="5uGWzuY_lre10eIsBFzZ-1" value="M5Stack CoreS3" style="swimlane;whiteSpace=wrap;html=1;" vertex="1" parent="1">
          <mxGeometry x="120" y="280" width="200" height="200" as="geometry" />
        </mxCell>
        <mxCell id="5uGWzuY_lre10eIsBFzZ-2" value="ESP32S3" style="text;html=1;align=center;verticalAlign=middle;resizable=0;points=[];autosize=1;strokeColor=none;fillColor=none;" vertex="1" parent="5uGWzuY_lre10eIsBFzZ-1">
          <mxGeometry x="10" y="30" width="80" height="30" as="geometry" />
        </mxCell>
        <mxCell id="5uGWzuY_lre10eIsBFzZ-4" value="IMU" style="rounded=0;whiteSpace=wrap;html=1;" vertex="1" parent="5uGWzuY_lre10eIsBFzZ-1">
          <mxGeometry y="150" width="60" height="50" as="geometry" />
        </mxCell>
        <mxCell id="5uGWzuY_lre10eIsBFzZ-5" value="LCD" style="rounded=1;whiteSpace=wrap;html=1;" vertex="1" parent="5uGWzuY_lre10eIsBFzZ-1">
          <mxGeometry y="100" width="60" height="50" as="geometry" />
        </mxCell>
        <mxCell id="5uGWzuY_lre10eIsBFzZ-6" value="Raspberry Pi" style="verticalLabelPosition=bottom;html=1;verticalAlign=top;align=center;strokeColor=none;fillColor=#00BEF2;shape=mxgraph.azure.computer;pointerEvents=1;" vertex="1" parent="1">
          <mxGeometry x="165" y="555" width="110" height="110" as="geometry" />
        </mxCell>
        <mxCell id="5uGWzuY_lre10eIsBFzZ-7" value="UART" style="edgeStyle=orthogonalEdgeStyle;rounded=0;orthogonalLoop=1;jettySize=auto;html=1;exitX=0.5;exitY=1;exitDx=0;exitDy=0;startArrow=classic;startFill=1;" edge="1" parent="1" source="5uGWzuY_lre10eIsBFzZ-1">
          <mxGeometry relative="1" as="geometry">
            <mxPoint x="220" y="555" as="targetPoint" />
          </mxGeometry>
        </mxCell>
        <mxCell id="5uGWzuY_lre10eIsBFzZ-9" value="" style="edgeStyle=orthogonalEdgeStyle;rounded=0;orthogonalLoop=1;jettySize=auto;html=1;startArrow=classic;startFill=1;" edge="1" parent="1" source="5uGWzuY_lre10eIsBFzZ-8" target="5uGWzuY_lre10eIsBFzZ-6">
          <mxGeometry relative="1" as="geometry" />
        </mxCell>
        <mxCell id="5uGWzuY_lre10eIsBFzZ-8" value="" style="image;html=1;image=img/lib/clip_art/networking/Wireless_Router_128x128.png" vertex="1" parent="1">
          <mxGeometry x="340" y="570" width="80" height="80" as="geometry" />
        </mxCell>
        <mxCell id="5uGWzuY_lre10eIsBFzZ-14" value="I2C" style="edgeStyle=orthogonalEdgeStyle;rounded=0;orthogonalLoop=1;jettySize=auto;html=1;" edge="1" parent="1" source="5uGWzuY_lre10eIsBFzZ-11" target="5uGWzuY_lre10eIsBFzZ-13">
          <mxGeometry relative="1" as="geometry" />
        </mxCell>
        <mxCell id="5uGWzuY_lre10eIsBFzZ-21" value="I2C" style="edgeStyle=orthogonalEdgeStyle;rounded=0;orthogonalLoop=1;jettySize=auto;html=1;entryX=0.5;entryY=1;entryDx=0;entryDy=0;" edge="1" parent="1" source="5uGWzuY_lre10eIsBFzZ-11" target="5uGWzuY_lre10eIsBFzZ-20">
          <mxGeometry relative="1" as="geometry" />
        </mxCell>
        <mxCell id="5uGWzuY_lre10eIsBFzZ-11" value="PaHub" style="rounded=0;whiteSpace=wrap;html=1;" vertex="1" parent="1">
          <mxGeometry x="440" y="350" width="120" height="60" as="geometry" />
        </mxCell>
        <mxCell id="5uGWzuY_lre10eIsBFzZ-26" style="edgeStyle=orthogonalEdgeStyle;rounded=0;orthogonalLoop=1;jettySize=auto;html=1;exitX=0.5;exitY=1;exitDx=0;exitDy=0;entryX=0.5;entryY=0;entryDx=0;entryDy=0;" edge="1" parent="1" source="5uGWzuY_lre10eIsBFzZ-13" target="5uGWzuY_lre10eIsBFzZ-25">
          <mxGeometry relative="1" as="geometry" />
        </mxCell>
        <mxCell id="5uGWzuY_lre10eIsBFzZ-27" value="PWM" style="edgeStyle=orthogonalEdgeStyle;rounded=0;orthogonalLoop=1;jettySize=auto;html=1;exitX=0.5;exitY=1;exitDx=0;exitDy=0;entryX=0.5;entryY=0;entryDx=0;entryDy=0;" edge="1" parent="1" source="5uGWzuY_lre10eIsBFzZ-13" target="5uGWzuY_lre10eIsBFzZ-24">
          <mxGeometry relative="1" as="geometry" />
        </mxCell>
        <mxCell id="5uGWzuY_lre10eIsBFzZ-28" value="Analog" style="edgeStyle=orthogonalEdgeStyle;rounded=0;orthogonalLoop=1;jettySize=auto;html=1;" edge="1" parent="1" source="5uGWzuY_lre10eIsBFzZ-13" target="5uGWzuY_lre10eIsBFzZ-29">
          <mxGeometry relative="1" as="geometry">
            <mxPoint x="730" y="280" as="targetPoint" />
            <Array as="points">
              <mxPoint x="730" y="330" />
              <mxPoint x="730" y="330" />
            </Array>
          </mxGeometry>
        </mxCell>
        <mxCell id="5uGWzuY_lre10eIsBFzZ-30" style="edgeStyle=orthogonalEdgeStyle;rounded=0;orthogonalLoop=1;jettySize=auto;html=1;exitX=1;exitY=0.5;exitDx=0;exitDy=0;" edge="1" parent="1" source="5uGWzuY_lre10eIsBFzZ-13" target="5uGWzuY_lre10eIsBFzZ-31">
          <mxGeometry relative="1" as="geometry">
            <mxPoint x="850" y="380" as="targetPoint" />
          </mxGeometry>
        </mxCell>
        <mxCell id="5uGWzuY_lre10eIsBFzZ-34" style="edgeStyle=orthogonalEdgeStyle;rounded=0;orthogonalLoop=1;jettySize=auto;html=1;exitX=0.5;exitY=0;exitDx=0;exitDy=0;" edge="1" parent="1">
          <mxGeometry relative="1" as="geometry">
            <mxPoint x="880" y="310" as="targetPoint" />
            <mxPoint x="730" y="340" as="sourcePoint" />
          </mxGeometry>
        </mxCell>
        <mxCell id="5uGWzuY_lre10eIsBFzZ-13" value="PbHub" style="rounded=0;whiteSpace=wrap;html=1;" vertex="1" parent="1">
          <mxGeometry x="670" y="350" width="120" height="60" as="geometry" />
        </mxCell>
        <mxCell id="5uGWzuY_lre10eIsBFzZ-18" value="I2C" style="edgeStyle=orthogonalEdgeStyle;rounded=0;orthogonalLoop=1;jettySize=auto;html=1;entryX=0.5;entryY=1;entryDx=0;entryDy=0;" edge="1" parent="1" source="5uGWzuY_lre10eIsBFzZ-15" target="5uGWzuY_lre10eIsBFzZ-17">
          <mxGeometry relative="1" as="geometry" />
        </mxCell>
        <mxCell id="5uGWzuY_lre10eIsBFzZ-15" value="Proximity Sensor&lt;div&gt;(TOF)&lt;/div&gt;" style="rounded=0;whiteSpace=wrap;html=1;" vertex="1" parent="1">
          <mxGeometry x="440" y="140" width="120" height="60" as="geometry" />
        </mxCell>
        <mxCell id="5uGWzuY_lre10eIsBFzZ-17" value="Thermal Sensor&lt;div&gt;(AMG)&lt;/div&gt;" style="rounded=0;whiteSpace=wrap;html=1;" vertex="1" parent="1">
          <mxGeometry x="440" y="20" width="120" height="60" as="geometry" />
        </mxCell>
        <mxCell id="5uGWzuY_lre10eIsBFzZ-19" value="I2C Connections can either be daisy-chained or connected through different ports in the PaHub" style="text;html=1;align=center;verticalAlign=middle;whiteSpace=wrap;rounded=0;" vertex="1" parent="1">
          <mxGeometry x="280" y="35" width="150" height="30" as="geometry" />
        </mxCell>
        <mxCell id="5uGWzuY_lre10eIsBFzZ-22" value="I2C" style="edgeStyle=orthogonalEdgeStyle;rounded=0;orthogonalLoop=1;jettySize=auto;html=1;exitX=0.5;exitY=0;exitDx=0;exitDy=0;entryX=0.5;entryY=1;entryDx=0;entryDy=0;" edge="1" parent="1" source="5uGWzuY_lre10eIsBFzZ-20" target="5uGWzuY_lre10eIsBFzZ-15">
          <mxGeometry relative="1" as="geometry" />
        </mxCell>
        <mxCell id="5uGWzuY_lre10eIsBFzZ-20" value="Logic Level Shifter&lt;div&gt;(LLS + Stepdown)&lt;/div&gt;" style="rounded=0;whiteSpace=wrap;html=1;" vertex="1" parent="1">
          <mxGeometry x="440" y="240" width="120" height="60" as="geometry" />
        </mxCell>
        <mxCell id="5uGWzuY_lre10eIsBFzZ-24" value="Buzzer" style="rounded=1;whiteSpace=wrap;html=1;" vertex="1" parent="1">
          <mxGeometry x="670" y="470" width="120" height="60" as="geometry" />
        </mxCell>
        <mxCell id="5uGWzuY_lre10eIsBFzZ-25" value="Vibration Motor" style="rounded=1;whiteSpace=wrap;html=1;" vertex="1" parent="1">
          <mxGeometry x="530" y="470" width="120" height="60" as="geometry" />
        </mxCell>
        <mxCell id="5uGWzuY_lre10eIsBFzZ-29" value="Analog Pressure Sensor" style="rounded=0;whiteSpace=wrap;html=1;" vertex="1" parent="1">
          <mxGeometry x="670" y="250" width="120" height="60" as="geometry" />
        </mxCell>
        <mxCell id="5uGWzuY_lre10eIsBFzZ-31" value="Button" style="rounded=0;whiteSpace=wrap;html=1;" vertex="1" parent="1">
          <mxGeometry x="860" y="350" width="120" height="60" as="geometry" />
        </mxCell>
        <mxCell id="5uGWzuY_lre10eIsBFzZ-32" value="Inputs are represented as sharp edge rectangles,&lt;div&gt;outputs as rounded edge rectangles.&lt;/div&gt;" style="text;html=1;align=center;verticalAlign=middle;whiteSpace=wrap;rounded=0;" vertex="1" parent="1">
          <mxGeometry x="120" y="230" width="180" height="30" as="geometry" />
        </mxCell>
        <mxCell id="5uGWzuY_lre10eIsBFzZ-35" value="Heartrate&lt;div&gt;Sensor&lt;/div&gt;" style="rounded=0;whiteSpace=wrap;html=1;" vertex="1" parent="1">
          <mxGeometry x="827" y="250" width="120" height="60" as="geometry" />
        </mxCell>
      </root>
    </mxGraphModel>
  </diagram>
</mxfile>
